PathFileType	4	(x/y/z)	S09_P20_T28
DataRate	CameraRate	NumFrames	NumMarkers	Units	OrigDataRate	OrigDataStartFrame	OrigNumFrames
240	240	10	51	mm	240	104	414
Frame#	Time	Sternum			R.Acromium			L.Acromium			Top.Head			R.ASIS			L.ASIS			R.PSIS			L.PSIS			R.Great.Tro			L.Great.Tro			R.Iliac.Crest			L.Iliac.Crest			V.Sacral			R.Thigh.Upper.Post			R.Thigh.Lower.Ant			R.Thigh.Lower.Post			R.Thigh.Upper.Ant			R.Knee.Lat			R.Knee.Med			R.Shank.Upper.Post			R.Shank.Lower.Ant			R.Shank.Lower.Post			R.Shank.Upper.Ant			R.Ankle.Lat			R.Ankle.Med			R.Heel.Upper			R.Heel.Med			R.Heel.Lat			R.Toe.Lat			R.Toe.Med			R.Toe.Tip			L.Thigh.Upper.Post			L.Thigh.Lower.Ant			L.Thigh.Lower.Post			L.Thigh.Upper.Ant			L.Knee.Lat			L.Knee.Med			L.Shank.Upper.Post			L.Shank.Lower.Ant			L.Shank.Lower.Post			L.Shank.Upper.Ant			L.Ankle.Lat			L.Ankle.Med			L.Heel.Upper			L.Heel.Med			L.Heel.Lat			L.Toe.Lat			L.Toe.Med			L.Toe.Tip			Cervical.Spine			Back			
		X1	Y1	Z1	X2	Y2	Z2	X3	Y3	Z3	X4	Y4	Z4	X5	Y5	Z5	X6	Y6	Z6	X7	Y7	Z7	X8	Y8	Z8	X9	Y9	Z9	X10	Y10	Z10	X11	Y11	Z11	X12	Y12	Z12	X13	Y13	Z13	X14	Y14	Z14	X15	Y15	Z15	X16	Y16	Z16	X17	Y17	Z17	X18	Y18	Z18	X19	Y19	Z19	X20	Y20	Z20	X21	Y21	Z21	X22	Y22	Z22	X23	Y23	Z23	X24	Y24	Z24	X25	Y25	Z25	X26	Y26	Z26	X27	Y27	Z27	X28	Y28	Z28	X29	Y29	Z29	X30	Y30	Z30	X31	Y31	Z31	X32	Y32	Z32	X33	Y33	Z33	X34	Y34	Z34	X35	Y35	Z35	X36	Y36	Z36	X37	Y37	Z37	X38	Y38	Z38	X39	Y39	Z39	X40	Y40	Z40	X41	Y41	Z41	X42	Y42	Z42	X43	Y43	Z43	X44	Y44	Z44	X45	Y45	Z45	X46	Y46	Z46	X47	Y47	Z47	X48	Y48	Z48	X49	Y49	Z49	X50	Y50	Z50	X51	Y51	Z51	

104	0.42917	-846.04	1199.1	342.19	-973.99	1447.9	474.14	-962.35	1451.4	175	-950.72	1755.5	328.95	-902.08	1032	434.51	-917.6	1030.1	189.43	-1130	1057.4	373.46	-1127.1	1065.3	284.05	-972.68	948.41	513.43	-1008	944.61	131.58	-988.24	1110.1	483.37	-1019.2	1132.8	163.87	-1146.1	1027	326.78	-888.45	713.72	497.87	-788.11	643.01	453.08	-863.41	625.26	473.56	-819.2	725.91	478.28	-786.63	560.21	451.74	-790.26	546.96	329.53	-845.75	381.41	463.14	-771.56	328.62	461.37	-838.87	305.59	456.77	-783.99	401.25	468.91	-787.08	119.34	450.21	-754.02	136.72	368.04	-843.75	90.398	391.97	-824.56	62.584	363.88	-838.93	59.585	427.1	-685.87	65.525	493.46	-631.69	84.048	396.85	-593.23	104.89	444.87	-1109.3	704.19	202.04	-1043.4	594.66	198.66	-1109.7	616.65	222.64	-1044.4	681.4	173.19	-1071.1	516.79	217.36	-1035.9	531.56	344.22	-1139.4	391.9	216.51	-1091.5	293.41	232.73	-1149.8	316.79	228.19	-1080.2	369.61	220.35	-1163.3	114.72	267.39	-1142.6	115.88	359.62	-1239.3	85.348	324.29	-1228.1	61.092	356.77	-1241.3	56.699	296.55	-1069.1	41.186	239.08	-1030	41.545	345.71	-977.27	47.905	285.82	-1055.8	1502.1	333.99	-1109.3	1238.9	316.04
105	0.43333	-840.58	1198.3	341.99	-968.64	1447.3	474.03	-956.9	1450.8	174.89	-945.23	1754.9	328.82	-896.18	1031.4	434.32	-912.34	1029.6	189.25	-1124.2	1057	373.78	-1121.6	1065	284.38	-966.95	947.63	513.19	-1003.2	944.24	131.6	-982.31	1109.5	483.33	-1014.1	1132.3	163.91	-1140.5	1026.7	327.2	-884.38	712.32	497.51	-784.55	641.04	452.53	-859.94	623.74	473.06	-815.09	724.07	477.82	-783.07	558.79	451.04	-787.03	545.5	328.52	-837.68	378.98	462.14	-762.13	328.21	460.06	-828.77	303.37	455.62	-776.52	400.48	467.8	-771.46	118.2	448.48	-738.85	136.83	366.45	-827.34	87.695	390.23	-807.26	60.559	362.04	-821.51	56.906	425.21	-668.66	67.293	491.56	-615.16	87.859	395.06	-577.35	109.73	443.14	-1105.2	704.31	202.26	-1039.8	594.49	198.68	-1106.4	616.88	222.72	-1040.5	681.24	173.27	-1067.9	516.71	217.39	-1032.4	531.31	344.19	-1136.9	392.29	216.58	-1089.7	293.43	232.74	-1147.9	317.25	228.28	-1078	369.58	220.36	-1162.7	115.29	267.54	-1142.1	116.21	359.67	-1239	86.166	324.39	-1227.8	61.79	356.9	-1241.1	57.498	296.67	-1068.9	41.229	239.14	-1029.8	41.365	345.78	-977.05	47.532	285.84	-1050.2	1501.5	333.86	-1103.7	1238.2	316.05
106	0.4375	-835.07	1197.5	341.79	-963.28	1446.6	473.92	-951.45	1450.1	174.79	-939.74	1754.3	328.7	-890.27	1030.8	434.15	-907.06	1029	189.09	-1118.3	1056.7	374.12	-1115.9	1064.6	284.73	-961.22	946.8	512.95	-998.34	943.84	131.63	-976.37	1108.9	483.32	-1009	1131.7	163.96	-1134.8	1026.4	327.6	-880.36	710.87	497.16	-781.07	638.99	452.03	-856.56	622.16	472.57	-811.02	722.14	477.44	-779.6	557.32	450.38	-783.9	543.99	327.51	-829.7	376.64	461.13	-752.85	327.88	458.71	-818.81	301.28	454.45	-769.14	399.73	466.67	-756.12	117.3	446.71	-724.01	137.14	364.8	-811.2	85.264	388.47	-790.27	58.82	360.16	-804.35	54.515	423.29	-651.78	69.306	489.56	-599.07	91.883	393.15	-561.89	114.75	441.26	-1101.1	704.42	202.48	-1036.1	594.3	198.68	-1103.1	617.07	222.8	-1036.5	681.07	173.33	-1064.7	516.6	217.41	-1028.8	531.04	344.14	-1134.4	392.68	216.63	-1087.9	293.44	232.75	-1145.9	317.71	228.35	-1075.6	369.54	220.36	-1162.2	115.87	267.67	-1141.6	116.54	359.69	-1238.6	87.015	324.48	-1227.5	62.516	357.01	-1240.8	58.321	296.78	-1068.8	41.27	239.2	-1029.7	41.201	345.84	-976.84	47.171	285.87	-1044.8	1500.9	333.73	-1098.2	1237.6	316.07
107	0.44167	-829.53	1196.7	341.61	-957.9	1446	473.82	-946.02	1449.5	174.7	-934.25	1753.6	328.59	-884.34	1030.2	434	-901.75	1028.4	188.95	-1112.3	1056.3	374.45	-1110.2	1064.3	285.08	-955.49	945.92	512.72	-993.44	943.43	131.66	-970.42	1108.3	483.33	-1003.9	1131.2	164.02	-1129.1	1026	328.01	-876.39	709.37	496.83	-777.64	636.85	451.61	-853.25	620.54	472.1	-806.99	720.14	477.11	-776.17	555.81	449.77	-780.85	542.43	326.49	-821.81	374.38	460.12	-743.73	327.61	457.34	-808.99	299.33	453.28	-761.87	399.02	465.52	-741.08	116.61	444.89	-709.55	137.66	363.09	-795.38	83.096	386.69	-773.64	57.357	358.25	-787.49	52.404	421.33	-635.28	71.538	487.47	-583.46	96.08	391.12	-546.89	119.91	439.25	-1096.9	704.51	202.7	-1032.4	594.09	198.67	-1099.7	617.23	222.87	-1032.5	680.88	173.39	-1061.3	516.49	217.41	-1025.2	530.73	344.08	-1131.8	393.07	216.65	-1086.1	293.44	232.73	-1143.8	318.18	228.4	-1073.2	369.49	220.34	-1161.6	116.47	267.78	-1141.1	116.89	359.69	-1238.3	87.895	324.54	-1227.2	63.271	357.1	-1240.6	59.167	296.87	-1068.6	41.309	239.25	-1029.5	41.051	345.89	-976.62	46.823	285.89	-1039.3	1500.3	333.62	-1092.7	1236.9	316.11
108	0.44583	-823.96	1195.8	341.44	-952.51	1445.3	473.73	-940.59	1448.8	174.62	-928.76	1752.9	328.49	-878.39	1029.6	433.87	-896.42	1027.8	188.82	-1106.3	1055.8	374.8	-1104.4	1063.9	285.45	-949.75	945	512.49	-988.5	943	131.7	-964.47	1107.7	483.36	-998.69	1130.6	164.09	-1123.4	1025.7	328.42	-872.45	707.84	496.52	-774.25	634.66	451.24	-849.99	618.89	471.65	-802.98	718.08	476.85	-772.79	554.28	449.18	-777.87	540.85	325.46	-814.02	372.22	459.11	-734.8	327.41	455.96	-799.33	297.5	452.1	-754.71	398.35	464.36	-726.38	116.13	443.03	-695.49	138.34	361.34	-779.91	81.18	384.89	-757.41	56.154	356.3	-771	50.563	419.36	-619.2	73.955	485.29	-568.36	100.41	388.99	-532.38	125.18	437.11	-1092.7	704.57	202.92	-1028.7	593.87	198.64	-1096.2	617.36	222.94	-1028.4	680.67	173.44	-1057.9	516.35	217.4	-1021.4	530.39	343.99	-1129.1	393.45	216.66	-1084.2	293.44	232.71	-1141.7	318.65	228.42	-1070.8	369.44	220.3	-1161	117.08	267.87	-1140.6	117.27	359.67	-1238	88.804	324.58	-1226.9	64.056	357.17	-1240.3	60.039	296.95	-1068.5	41.347	239.3	-1029.3	40.918	345.94	-976.42	46.488	285.92	-1033.9	1499.7	333.52	-1087.3	1236.2	316.16
109	0.45	-818.37	1195	341.28	-947.11	1444.6	473.65	-935.18	1448.1	174.54	-923.27	1752.2	328.41	-872.43	1028.9	433.76	-891.06	1027.2	188.71	-1100.3	1055.3	375.14	-1098.6	1063.4	285.82	-943.99	944.05	512.27	-983.52	942.55	131.74	-958.5	1107	483.42	-993.46	1130	164.17	-1117.6	1025.3	328.83	-868.53	706.28	496.2	-770.87	632.42	450.92	-846.76	617.21	471.19	-798.97	715.97	476.64	-769.42	552.74	448.62	-774.93	539.27	324.44	-806.35	370.16	458.09	-726.05	327.26	454.56	-789.86	295.8	450.91	-747.67	397.71	463.19	-712.06	115.83	441.14	-681.86	139.18	359.54	-764.83	79.501	383.08	-741.64	55.189	354.33	-754.91	48.973	417.38	-603.57	76.523	483.04	-553.79	104.82	386.74	-518.38	130.49	434.85	-1088.4	704.61	203.15	-1024.8	593.63	198.6	-1092.6	617.47	223	-1024.3	680.45	173.48	-1054.4	516.2	217.38	-1017.6	530.01	343.89	-1126.4	393.83	216.65	-1082.3	293.44	232.67	-1139.6	319.13	228.43	-1068.3	369.37	220.25	-1160.4	117.72	267.95	-1140	117.67	359.63	-1237.7	89.743	324.6	-1226.6	64.873	357.23	-1240.1	60.937	297	-1068.4	41.384	239.34	-1029.2	40.801	345.97	-976.21	46.166	285.94	-1028.4	1499	333.44	-1081.8	1235.5	316.22
110	0.45417	-812.76	1194.1	341.14	-941.7	1443.9	473.58	-929.78	1447.3	174.48	-917.79	1751.5	328.33	-866.46	1028.3	433.66	-885.66	1026.5	188.61	-1094.3	1054.8	375.49	-1092.8	1063	286.19	-938.23	943.06	512.06	-978.5	942.09	131.79	-952.53	1106.3	483.51	-988.19	1129.4	164.26	-1111.9	1024.9	329.23	-864.6	704.7	495.88	-767.49	630.16	450.66	-843.53	615.53	470.72	-794.96	713.83	476.5	-766.05	551.2	448.08	-772.02	537.69	323.41	-798.79	368.2	457.06	-717.51	327.16	453.16	-780.59	294.22	449.71	-740.74	397.09	462	-698.16	115.7	439.23	-668.71	140.13	357.7	-750.2	78.038	381.26	-726.35	54.439	352.34	-739.28	47.617	415.38	-588.44	79.201	480.72	-539.79	109.27	384.41	-504.91	135.8	432.49	-1084.1	704.63	203.37	-1020.9	593.38	198.54	-1089	617.54	223.06	-1020.1	680.22	173.51	-1050.9	516.04	217.34	-1013.7	529.61	343.78	-1123.7	394.2	216.63	-1080.3	293.44	232.61	-1137.4	319.62	228.43	-1065.7	369.3	220.18	-1159.8	118.37	268	-1139.5	118.09	359.58	-1237.4	90.713	324.6	-1226.3	65.725	357.27	-1239.8	61.863	297.04	-1068.2	41.421	239.37	-1029	40.701	346.01	-976.01	45.86	285.97	-1023	1498.4	333.38	-1076.3	1234.7	316.31
111	0.45833	-807.15	1193.2	341.01	-936.28	1443.1	473.51	-924.4	1446.6	174.43	-912.31	1750.8	328.27	-860.47	1027.6	433.58	-880.23	1025.9	188.53	-1088.2	1054.3	375.85	-1086.9	1062.5	286.58	-932.45	942.05	511.87	-973.45	941.61	131.85	-946.56	1105.5	483.63	-982.89	1128.7	164.36	-1106.2	1024.4	329.64	-860.66	703.12	495.55	-764.08	627.9	450.43	-840.29	613.85	470.24	-790.92	711.67	476.4	-762.65	549.67	447.55	-769.1	536.15	322.38	-791.37	366.34	456.02	-709.17	327.08	451.74	-771.53	292.76	448.49	-733.93	396.5	460.81	-684.7	115.71	437.29	-656.06	141.17	355.82	-736.04	76.77	379.43	-711.59	53.875	350.34	-724.13	46.47	413.38	-573.84	81.947	478.34	-526.37	113.71	381.99	-492	141.05	430.03	-1079.7	704.63	203.6	-1017	593.11	198.48	-1085.2	617.58	223.12	-1015.9	679.97	173.55	-1047.3	515.85	217.29	-1009.7	529.17	343.64	-1120.8	394.58	216.59	-1078.3	293.43	232.55	-1135.2	320.11	228.41	-1063.1	369.22	220.1	-1159.1	119.05	268.03	-1139	118.55	359.51	-1237	91.715	324.58	-1226	66.614	357.29	-1239.5	62.819	297.06	-1068.1	41.458	239.4	-1028.9	40.618	346.03	-975.82	45.567	285.99	-1017.6	1497.7	333.32	-1070.8	1233.9	316.4
112	0.4625	-801.52	1192.4	340.89	-930.86	1442.4	473.46	-919.03	1445.8	174.38	-906.83	1750	328.21	-854.48	1026.8	433.51	-874.76	1025.2	188.47	-1082.2	1053.7	376.21	-1081.1	1062	286.98	-926.66	941.02	511.71	-968.35	941.12	131.9	-940.57	1104.8	483.77	-977.55	1128	164.47	-1100.4	1023.9	330.06	-856.69	701.54	495.21	-760.62	625.65	450.24	-837.01	612.19	469.74	-786.84	709.53	476.35	-759.2	548.17	447.02	-766.16	534.64	321.36	-784.08	364.57	454.97	-701.05	327.02	450.33	-762.7	291.39	447.26	-727.25	395.93	459.61	-671.74	115.82	435.33	-643.93	142.26	353.92	-722.4	75.673	377.59	-697.4	53.468	348.32	-709.54	45.504	411.37	-559.8	84.715	475.92	-513.55	118.08	379.49	-479.67	146.19	427.5	-1075.2	704.6	203.83	-1013	592.83	198.4	-1081.4	617.58	223.18	-1011.6	679.71	173.58	-1043.6	515.65	217.24	-1005.6	528.7	343.5	-1117.9	394.95	216.53	-1076.2	293.44	232.47	-1132.9	320.61	228.38	-1060.4	369.13	220	-1158.5	119.76	268.05	-1138.4	119.03	359.44	-1236.7	92.75	324.54	-1225.7	67.543	357.29	-1239.3	63.809	297.06	-1067.9	41.496	239.42	-1028.7	40.553	346.05	-975.63	45.29	286.02	-1012.2	1496.9	333.29	-1065.4	1233.1	316.51
113	0.46667	-795.89	1191.5	340.78	-925.42	1441.6	473.42	-913.68	1445	174.34	-901.36	1749.3	328.17	-848.48	1026.1	433.46	-869.26	1024.6	188.42	-1076.1	1053.1	376.58	-1075.2	1061.4	287.38	-920.85	939.98	511.56	-963.21	940.61	131.97	-934.58	1104	483.95	-972.17	1127.3	164.59	-1094.6	1023.4	330.47	-852.67	699.97	494.85	-757.08	623.44	450.06	-833.66	610.56	469.21	-782.7	707.4	476.33	-755.68	546.71	446.48	-763.17	533.19	320.34	-776.93	362.89	453.92	-693.16	326.96	448.9	-754.13	290.12	446.01	-720.69	395.36	458.41	-659.29	116.01	433.34	-632.34	143.37	351.98	-709.31	74.719	375.73	-683.81	53.186	346.27	-695.52	44.692	409.35	-546.37	87.459	473.47	-501.35	122.35	376.93	-467.94	151.17	424.91	-1070.7	704.55	204.06	-1008.9	592.54	198.33	-1077.5	617.56	223.24	-1007.2	679.43	173.6	-1039.8	515.44	217.18	-1001.4	528.2	343.34	-1115	395.33	216.46	-1074.1	293.44	232.39	-1130.5	321.11	228.34	-1057.6	369.04	219.89	-1157.8	120.49	268.04	-1137.8	119.55	359.36	-1236.3	93.822	324.48	-1225.4	68.515	357.27	-1239	64.834	297.05	-1067.8	41.535	239.44	-1028.5	40.506	346.07	-975.44	45.026	286.05	-1006.9	1496.2	333.26	-1059.9	1232.3	316.63
